<mxfile host="app.diagrams.net" modified="2022-12-08T14:19:31.831Z" agent="5.0 (Windows NT 10.0; Win64; x64) AppleWebKit/537.36 (KHTML, like Gecko) Chrome/108.0.0.0 Safari/537.36" etag="GoIDjQHpAD9Sgjv2X6RZ" version="20.6.0" type="github">
  <diagram id="rQz2FHpG8r6NLyUr4xRN" name="Pagina-1">
    <mxGraphModel dx="1038" dy="539" grid="1" gridSize="10" guides="1" tooltips="1" connect="1" arrows="1" fold="1" page="1" pageScale="1" pageWidth="827" pageHeight="1169" math="0" shadow="0">
      <root>
        <mxCell id="0" />
        <mxCell id="1" parent="0" />
        <mxCell id="Zs46eBv8vk1W993-dL3z-2" value="" style="rounded=0;whiteSpace=wrap;html=1;fontFamily=Verdana;" parent="1" vertex="1">
          <mxGeometry x="344" y="415" width="140" height="170" as="geometry" />
        </mxCell>
        <mxCell id="Zs46eBv8vk1W993-dL3z-3" value="Crea ordinazione" style="ellipse;whiteSpace=wrap;html=1;fontFamily=Verdana;" parent="1" vertex="1">
          <mxGeometry x="354" y="455" width="120" height="50" as="geometry" />
        </mxCell>
        <mxCell id="Zs46eBv8vk1W993-dL3z-4" value="Aggiorna ordinazione" style="ellipse;whiteSpace=wrap;html=1;fontFamily=Verdana;" parent="1" vertex="1">
          <mxGeometry x="354" y="515" width="120" height="50" as="geometry" />
        </mxCell>
        <mxCell id="Zs46eBv8vk1W993-dL3z-5" value="Ratatouille23" style="text;align=center;fontStyle=1;verticalAlign=middle;spacingLeft=3;spacingRight=3;strokeColor=none;rotatable=0;points=[[0,0.5],[1,0.5]];portConstraint=eastwest;fontFamily=Verdana;" parent="1" vertex="1">
          <mxGeometry x="374" y="415" width="80" height="26" as="geometry" />
        </mxCell>
        <mxCell id="uz4YzBSykmbv2y3Xn7r--1" value="Addetto alla sala" style="shape=umlActor;verticalLabelPosition=bottom;verticalAlign=top;html=1;outlineConnect=0;" parent="1" vertex="1">
          <mxGeometry x="240" y="480" width="30" height="60" as="geometry" />
        </mxCell>
        <mxCell id="uz4YzBSykmbv2y3Xn7r--2" value="" style="endArrow=none;html=1;rounded=0;entryX=0;entryY=0.5;entryDx=0;entryDy=0;" parent="1" target="Zs46eBv8vk1W993-dL3z-3" edge="1">
          <mxGeometry width="50" height="50" relative="1" as="geometry">
            <mxPoint x="280" y="510" as="sourcePoint" />
            <mxPoint x="320" y="520" as="targetPoint" />
            <Array as="points">
              <mxPoint x="320" y="510" />
              <mxPoint x="320" y="480" />
            </Array>
          </mxGeometry>
        </mxCell>
        <mxCell id="uz4YzBSykmbv2y3Xn7r--3" value="" style="endArrow=none;html=1;rounded=0;entryX=0;entryY=0.5;entryDx=0;entryDy=0;" parent="1" target="Zs46eBv8vk1W993-dL3z-4" edge="1">
          <mxGeometry width="50" height="50" relative="1" as="geometry">
            <mxPoint x="320" y="510" as="sourcePoint" />
            <mxPoint x="440" y="550" as="targetPoint" />
            <Array as="points">
              <mxPoint x="320" y="540" />
            </Array>
          </mxGeometry>
        </mxCell>
      </root>
    </mxGraphModel>
  </diagram>
</mxfile>
